<svg width="59" height="59" viewBox="0 0 59 59" fill="none" xmlns="http://www.w3.org/2000/svg">
<path d="M29.5 0C45.7924 0 59 13.2076 59 29.5C59 45.7924 45.7924 59 29.5 59C22.3527 59 15.7997 56.4575 10.6943 52.2285C14.2137 49.8894 17.6045 47.4269 20.8096 44.8369C20.9695 44.8682 21.2469 44.9161 21.623 44.9502C21.8981 44.9745 22.222 44.9933 22.5869 44.9746C22.9387 44.954 23.3224 44.8891 23.7285 44.8105C24.26 44.7095 24.8232 44.5612 25.4053 44.376C26.1178 44.1498 26.8474 43.8638 27.5527 43.5068C29.487 44.234 32.4317 44.7657 35.1123 43.918C37.3359 43.2142 39.3969 41.5816 40.5293 38.3174L40.6953 37.8643L40.3232 37.7783C38.9644 37.4059 37.3953 37.1388 35.7969 37.1631C34.7639 37.18 33.7231 37.3239 32.7275 37.6064C30.2832 38.3046 28.1121 39.8489 26.8955 42.5908L26.793 42.8125C26.5275 42.8892 26.2618 42.9587 25.9971 43.0205C24.8441 43.2882 23.7209 43.3501 22.8057 43.4512C22.676 43.4656 22.5515 43.4839 22.4316 43.501C26.2279 40.3178 29.7388 36.9489 32.8662 33.3906C32.9872 33.3304 33.327 33.1588 33.8135 32.8838C34.0961 32.7228 34.4257 32.5359 34.7812 32.3057C35.5898 31.7835 36.5403 31.0909 37.6445 30.5312L37.8887 30.4111C39.8035 31.1916 43.6739 31.6111 46.3447 30.8662C47.7241 30.4825 48.7877 29.7935 49.1826 28.751C49.4295 28.1035 49.435 27.3117 49.0664 26.3574C48.7146 25.0192 47.6906 24.3265 46.373 24.1318C45.6637 24.027 44.8624 24.098 44.0352 24.3057C43.2509 24.5022 42.442 24.8357 41.6689 25.2793C39.9883 26.2441 38.4809 27.729 37.624 29.4014C37.1636 29.548 36.7154 29.7115 36.2861 29.8877C36.0162 29.9989 35.7541 30.1131 35.502 30.2305C35.9515 29.6607 36.3921 29.0868 36.8213 28.5078C37.6341 27.4107 38.2512 26.4106 38.7949 25.3301C41.0664 24.319 42.7563 21.6115 43.5439 18.7773C44.1822 16.477 44.2423 14.1256 43.6377 12.6582C43.211 11.6214 42.4751 10.9912 41.4102 11.0137C39.7369 10.8995 38.4431 11.5298 37.4941 12.5967C36.8878 13.2761 36.4428 14.1522 36.1377 15.1348C35.842 16.0892 35.6918 17.1522 35.6768 18.2471C35.6449 20.6803 36.2839 23.2708 37.3545 25.2529L37.5508 25.6279C37.1067 26.3772 36.6087 27.1062 36 27.8848C33.7376 30.7845 31.2023 33.5526 28.4492 36.1963C28.4865 35.9123 28.4991 35.6001 28.5078 35.2686C28.519 34.797 28.5014 34.2917 28.4658 33.7715C28.4454 33.4588 28.4164 33.1425 28.3799 32.8271C29.723 30.8025 29.8861 28.333 29.3535 26.2285C28.9736 24.7368 28.2581 23.4375 27.4121 22.6289C26.5699 21.8243 25.604 21.4878 24.6963 21.834C23.42 22.1541 22.7445 23.1365 22.5518 24.4316C22.4507 25.1054 22.5143 25.8729 22.707 26.6758C22.8867 27.4206 23.1939 28.197 23.6094 28.9531C24.4598 30.5043 25.7661 31.9679 27.3037 33.0029C27.2634 33.6475 27.1909 34.2832 27.1172 34.874C27.0667 35.2876 26.9987 35.6735 26.9688 36.0234C26.9501 36.2666 26.9503 36.4873 26.9521 36.6875C26.9559 37.106 26.9738 37.4124 26.9854 37.5713C22.7395 41.4748 18.0207 45.0985 13.0039 48.459C13.0098 48.4395 13.0166 48.42 13.0225 48.4004C13.1066 48.116 13.1889 47.813 13.2656 47.4932C13.3349 47.1994 13.399 46.8923 13.457 46.5742C13.837 44.5359 14.1396 42.0368 14.1621 39.5605C14.1732 38.2613 14.1014 36.9698 13.917 35.7529L14.0654 35.3672C15.0087 32.8068 15.469 29.9656 15.1826 27.3154C14.8794 24.5286 13.7623 21.9531 11.5352 20.1357L11.252 19.8984L11.0723 20.0254C9.35794 21.1409 8.34698 22.8012 7.9502 24.6484C7.69005 25.8594 7.71111 27.1531 7.93945 28.4053C8.52989 31.6394 10.5623 34.6031 13.0957 35.6025C13.2045 36.853 13.1815 38.1819 13.0801 39.5137C13.0631 39.7384 13.0413 39.9631 13.0195 40.1875C12.7835 38.7217 12.3119 37.6603 11.709 36.8799C10.3988 35.1804 8.47465 34.791 6.97168 34.499L6.57812 34.4131L6.48828 34.6699C5.91008 36.0529 5.71543 37.2493 5.84082 38.2637C5.95881 39.2124 6.3576 40.0042 6.9209 40.6367C8.07728 41.9387 10.0268 42.5726 12.1846 42.6113H12.7051C12.4965 43.9193 12.244 45.1677 12.001 46.2783C11.9336 46.589 11.8677 46.8866 11.8115 47.1748C11.7479 47.4892 11.6931 47.7907 11.6426 48.0752C11.5457 48.6334 11.456 49.1235 11.3838 49.5283C10.6653 49.9959 9.94106 50.4579 9.21191 50.915C3.53887 45.5387 0 37.9328 0 29.5C0 13.2076 13.2076 0 29.5 0ZM35.0117 38.5234C36.6342 38.3139 38.2791 38.3419 39.7275 38.5664C38.5802 41.181 36.7821 42.501 34.8525 43.042C32.7582 43.6268 30.5229 43.3026 28.832 42.752C29.1086 42.5611 29.3768 42.3569 29.6318 42.1357C29.746 42.0497 29.7705 41.8886 29.6846 41.7744C29.6004 41.6603 29.4374 41.6357 29.3232 41.7197C29.0381 41.9001 28.7408 42.0582 28.4375 42.2012C29.302 40.8495 30.4825 39.9492 31.7979 39.3643C32.8123 38.9132 33.9093 38.6657 35.0117 38.5234ZM7.24316 35.2314C8.50278 35.544 10.0001 35.9952 10.9883 37.4102C11.6152 38.3066 12.0229 39.5885 12.0566 41.458C10.3517 41.3363 8.83911 40.7991 7.92578 39.751C7.52549 39.2926 7.25397 38.733 7.12109 38.0596C6.96576 37.2698 6.96998 36.3375 7.24316 35.2314ZM11.4004 20.8848C13.2231 22.6122 14.0991 24.9271 14.292 27.3975C14.4545 29.4737 14.1296 31.658 13.4678 33.7031C13.2711 33.0423 13.029 32.4213 12.7305 31.8564C12.6705 31.7331 12.5208 31.6805 12.3955 31.7402C12.272 31.8001 12.2194 31.9507 12.2793 32.0742C12.5685 32.7369 12.7747 33.4675 12.916 34.2441C11.0549 33.1294 9.70421 30.7092 9.25684 28.167C9.06409 27.074 9.04591 25.9564 9.22559 24.8896C9.48017 23.3681 10.1315 21.9403 11.4004 20.8848ZM24.9082 22.4424C25.4266 22.2777 25.9446 22.4385 26.4219 22.7959C27.3259 23.4735 28.0598 24.8564 28.3799 26.4492C28.6624 27.8552 28.6085 29.435 28.0068 30.8555C27.8904 30.4383 27.7533 30.0423 27.583 29.6836C27.5325 29.5508 27.3847 29.4838 27.25 29.5322C27.1171 29.5828 27.049 29.7323 27.0977 29.8652C27.222 30.3165 27.2873 30.8129 27.3164 31.333C26.3252 30.4479 25.5069 29.3528 24.8984 28.2461C24.5392 27.5931 24.251 26.9362 24.0508 26.3037C23.7981 25.4989 23.673 24.7479 23.7666 24.0947C23.8714 23.3667 24.197 22.7681 24.9082 22.4424ZM44.417 25.6465C45.248 25.377 46.0378 25.2438 46.7266 25.3486C47.4808 25.4628 48.1099 25.8163 48.458 26.5742C49.1112 28.5713 47.8943 29.5615 46.1162 29.9658C44.1628 30.407 41.5555 30.1723 39.7012 29.6631C40.1822 29.5054 40.6737 29.379 41.1729 29.2998C41.3151 29.2886 41.4204 29.1628 41.4092 29.0205C41.3978 28.8784 41.272 28.7739 41.1299 28.7852C40.5929 28.7911 40.0553 28.8438 39.5244 28.9326C40.3053 27.9812 41.333 27.1715 42.4023 26.5557C43.0705 26.1701 43.7525 25.8599 44.417 25.6465ZM41.4102 11.6592C42.1737 11.6761 42.6585 12.1774 42.9336 12.9316C43.4259 14.2886 43.2485 16.4211 42.5859 18.4912C41.9964 20.3351 41.0196 22.1474 39.7178 23.2725C39.9893 22.6019 40.2635 21.8769 40.5557 21.0664C40.6361 20.8549 40.5288 20.6166 40.3154 20.5361C40.104 20.4578 39.8666 20.5651 39.7881 20.7783C39.2812 22.0744 38.8358 23.147 38.3604 24.1221C38.3335 24.133 38.3073 24.1459 38.2803 24.1562C37.5074 22.4176 37.126 20.2785 37.1484 18.2666C37.1615 17.3008 37.2642 16.3662 37.4795 15.5127C37.7415 14.4758 38.1499 13.5625 38.7881 12.8887C39.4376 12.2037 40.2835 11.7397 41.4102 11.6592Z" fill="#343D33"/>
</svg>
